<?xml version="1.0" encoding="UTF-8" standalone="no"?>
<!-- Created with Inkscape (http://www.inkscape.org/) -->

<svg
   width="143.09912mm"
   height="149.10139mm"
   viewBox="0 0 143.09912 149.10139"
   version="1.1"
   id="svg1"
   xml:space="preserve"
   inkscape:version="1.3 (0e150ed, 2023-07-21)"
   sodipodi:docname="ogb_logo.svg"
   inkscape:export-filename="ogb_logo.svg"
   inkscape:export-xdpi="231.51123"
   inkscape:export-ydpi="231.51123"
   xmlns:inkscape="http://www.inkscape.org/namespaces/inkscape"
   xmlns:sodipodi="http://sodipodi.sourceforge.net/DTD/sodipodi-0.dtd"
   xmlns="http://www.w3.org/2000/svg"
   xmlns:svg="http://www.w3.org/2000/svg"><sodipodi:namedview
     id="namedview1"
     pagecolor="#ffffff"
     bordercolor="#999999"
     borderopacity="1"
     inkscape:showpageshadow="2"
     inkscape:pageopacity="0"
     inkscape:pagecheckerboard="0"
     inkscape:deskcolor="#d1d1d1"
     inkscape:document-units="mm"
     inkscape:zoom="0.35355339"
     inkscape:cx="1039.447"
     inkscape:cy="712.76363"
     inkscape:window-width="1696"
     inkscape:window-height="1027"
     inkscape:window-x="2942"
     inkscape:window-y="25"
     inkscape:window-maximized="0"
     inkscape:current-layer="g209"
     inkscape:export-bgcolor="#fcf8f8f0" /><defs
     id="defs1"><linearGradient
       id="swatch100"
       inkscape:swatch="solid"><stop
         style="stop-color:#010101;stop-opacity:0.08058609;"
         offset="0"
         id="stop100" /></linearGradient></defs><g
     inkscape:label="Ebene 1"
     inkscape:groupmode="layer"
     id="layer1"
     transform="translate(-33.450505,-315.24557)"><g
       id="g209"
       transform="matrix(1.1845802,0,0,1.1550114,-25.862009,-39.69287)"
       inkscape:export-filename="ogb_new_logo.svg"
       inkscape:export-xdpi="231.51123"
       inkscape:export-ydpi="231.51123"><path
         style="fill:#ffffff;stroke:#050505;stroke-opacity:0.196891"
         d="m 92.126961,435.63117 -0.20988,-0.2616 0.10383,-0.17378 c 0.0571,-0.0956 1.0571,-0.68948 2.22222,-1.31977 1.16512,-0.6303 2.8585,-1.61982 3.76307,-2.19894 l 1.644673,-1.05295 0.820076,-0.86827 0.82009,-0.86826 0.68788,-1.1993 c 1.47117,-2.56495 2.31936,-7.01208 2.5514,-13.37729 l 0.10445,-2.86541 -0.27782,-0.98499 -0.27782,-0.98498 -0.4829,-0.77594 -0.4829,-0.77594 -4.660716,-3.68929 c -8.187893,-6.48129 -8.695673,-6.80584 -13.105203,-8.37598 -4.41078,-1.57059 -14.35732,-5.27247 -15.12746,-5.6301 l -0.69249,-0.32158 -2.21764,-2.26959 -2.21765,-2.2696 -0.95417,0.65517 c -0.5248,0.36034 -1.39641,0.81596 -1.93692,1.01248 l -0.98274,0.3573 -1.24649,0.0975 -1.24649,0.0975 -1.09106,-0.21948 -1.09107,-0.21948 -1.08839,-0.53431 -1.08838,-0.5343 -1.09193,-1.05664 -1.09192,-1.05664 -0.52987,-1.03535 c -0.29142,-0.56945 -0.65415,-1.47308 -0.80606,-2.00808 l -0.27619,-0.97272 v -1.56042 -1.56043 l 0.34369,-1.15108 0.34369,-1.15108 0.66423,-1.0631 0.66423,-1.06311 0.85315,-0.77849 0.85315,-0.7785 0.99368,-0.52005 0.99368,-0.52006 1.0838,-0.26433 c 1.36357,-0.33257 2.15459,-0.33226 3.67762,10e-4 l 1.20884,0.26488 0.93322,0.47232 0.93321,0.47231 1.16453,1.13641 1.16453,1.13641 0.54,1.04806 c 0.297,0.57643 0.65929,1.52181 0.80509,2.10085 l 0.26508,1.05279 v 1.26791 1.26791 l -0.2667,1.05924 -0.26671,1.05924 2.14908,2.22314 2.14908,2.22313 6.38425,2.36495 c 7.31714,2.71054 6.57233,2.53195 6.11678,1.46663 -0.19703,-0.46076 -0.48171,-1.37985 -0.63262,-2.04242 l -0.27439,-1.20467 -0.048,-6.52861 -0.048,-6.52862 -7.72172,-7.96654 -7.72171,-7.96654 -0.81855,0.41599 c -0.4502,0.22879 -1.20807,0.5251 -1.68416,0.65846 l -0.86561,0.24248 -1.39685,0.002 -1.39684,0.002 -0.94032,-0.28572 c -0.51717,-0.15714 -1.39749,-0.5361 -1.95625,-0.84213 l -1.01594,-0.55643 -0.99612,-1.01458 -0.99613,-1.01457 -0.54262,-1.14302 -0.54262,-1.14301 -0.25556,-1.25362 c -0.31901,-1.56483 -0.32121,-2.36589 -0.0107,-3.88149 l 0.24487,-1.19518 0.48412,-1.04343 0.48413,-1.04342 1.21563,-1.27313 1.21564,-1.27313 0.90598,-0.47448 c 0.4983,-0.26096 1.35215,-0.59468 1.89745,-0.74161 l 0.99146,-0.26714 h 1.22567 1.22568 l 1.01773,0.27422 c 0.55975,0.15082 1.49149,0.53362 2.07054,0.85067 l 1.05281,0.57645 1.03877,1.07627 1.03876,1.07628 0.48635,1.00677 c 0.26749,0.55373 0.59766,1.43943 0.73372,1.96823 l 0.24737,0.96145 0.002,1.35031 0.002,1.3503 -0.25886,1.02808 c -0.14237,0.56544 -0.42231,1.3595 -0.62208,1.76458 l -0.36322,0.7365 8.41262,8.7092 8.41261,8.70921 v 7.26107 7.26108 l 0.27915,0.97271 c 0.37358,1.30175 1.08186,2.71784 1.99665,3.99192 l 0.75334,1.04922 6.49237,5.02301 c 7.167379,5.54524 8.575539,6.6885 10.171239,8.25778 l 1.08202,1.06411 v -9.75107 -9.75107 l -0.26831,-1.06561 -0.26832,-1.06561 -0.52075,-0.83949 -0.52075,-0.83949 -9.704459,-9.90758 -9.70446,-9.90757 -1.40869,-0.0983 -1.40868,-0.0983 -0.86562,-0.4028 -0.86561,-0.40281 -0.74628,-0.75255 c -1.30996,-1.32099 -1.93058,-2.80649 -1.93507,-4.63177 l -0.002,-0.83472 0.32974,-1.09597 0.32974,-1.09597 0.46116,-0.62543 c 0.77623,-1.05276 1.34228,-1.52727 2.51078,-2.10475 l 1.121141,-0.55407 1.38914,0.003 1.389149,0.003 1.08756,0.50799 1.087571,0.50799 0.94367,1.0544 0.943679,1.05441 0.37253,1.26872 0.37252,1.26872 -0.10262,1.26629 -0.10263,1.26628 -0.54781,1.15111 -0.54781,1.15111 4.99847,5.18361 c 2.749163,2.85099 6.617689,6.80232 8.596749,8.78073 l 3.59828,3.59711 -0.0493,-9.29493 -0.0493,-9.29493 -0.55236,-1.20619 -0.55235,-1.20619 -1.78481,-1.84034 c -0.98164,-1.01219 -5.3801,-5.53567 -9.774349,-10.05219 l -7.98955,-8.21184 -1.18597,0.42353 -1.18597,0.42354 -1.90436,-0.0191 -1.90435,-0.0191 -1.03874,-0.38899 c -1.32052,-0.49453 -2.69407,-1.436 -3.7376,-2.56189 l -0.81806,-0.88262 -0.61804,-1.21665 -0.61804,-1.21665 -0.26104,-1.14561 c -0.30956,-1.35847 -0.334,-2.57069 -0.0811,-4.0229 l 0.18504,-1.06264 0.66473,-1.43271 0.66474,-1.43271 0.84992,-0.91673 c 1.07202,-1.15627 2.44972,-2.10705 3.77629,-2.60608 l 1.03196,-0.38821 1.75208,-0.0787 1.75209,-0.0787 1.00883,0.30338 c 0.55486,0.16686 1.44958,0.53354 1.98827,0.81484 l 0.97944,0.51145 1.0065,0.95073 1.00651,0.95073 0.57472,0.92844 c 0.31609,0.51064 0.73248,1.3425 0.92531,1.84857 l 0.3506,0.92013 0.17614,1.28468 0.17613,1.28467 -0.1962,1.33894 c -0.22872,1.56085 -0.67162,2.80936 -1.38387,3.90108 -0.27952,0.42844 -0.50822,0.83755 -0.50822,0.90912 0,0.11505 11.163309,11.6487 15.626979,16.1454 l 1.68533,1.69781 V 340.3331 327.25228 l -0.85425,-0.22648 -0.85425,-0.22649 -1.00682,-0.62376 -1.00683,-0.62377 -0.91708,-0.92972 c -0.5044,-0.51134 -1.14184,-1.29237 -1.41654,-1.73561 l -0.49945,-0.8059 -0.44454,-1.37474 -0.44453,-1.37474 v -1.55436 -1.55437 l 0.27243,-1.08759 c 0.35506,-1.41742 0.90339,-2.51606 1.86566,-3.73805 l 0.78024,-0.99083 1.18096,-0.83087 1.18096,-0.83087 1.03874,-0.37812 1.03874,-0.37812 1.5581,-0.0907 1.55811,-0.0907 1.19403,0.29044 1.19402,0.29043 1.05658,0.57307 1.05657,0.57306 1.23104,1.25906 1.23103,1.25906 0.54507,1.11747 0.54507,1.11746 0.25553,1.12114 0.25553,1.12114 0.003,1.09065 0.003,1.09066 -0.34942,1.41329 -0.34942,1.4133 -0.55947,0.97662 -0.55948,0.97662 -0.97623,1.02152 -0.97624,1.02153 -1.10124,0.63107 c -0.60568,0.34709 -1.43234,0.73144 -1.83702,0.85413 l -0.73577,0.22306 v 13.17877 13.17877 l 9.06553,-9.37662 9.06553,-9.37662 -0.50225,-1.03972 -0.50224,-1.03972 -0.27001,-1.3133 -0.27001,-1.3133 0.0994,-1.27957 0.0994,-1.27957 0.42319,-1.20604 0.42319,-1.20604 0.6471,-0.97194 c 0.35591,-0.53457 1.00464,-1.29824 1.44163,-1.69705 l 0.79453,-0.72512 1.03874,-0.54511 c 0.5713,-0.29982 1.42826,-0.65303 1.90435,-0.78492 l 0.86562,-0.23979 1.39189,-0.002 1.39189,-0.002 1.01773,0.27422 c 0.55975,0.15082 1.47365,0.52559 2.03088,0.83283 l 1.01316,0.55861 1.12209,1.16076 1.1221,1.16077 0.51524,1.09568 c 0.28337,0.60262 0.63377,1.576 0.77866,2.16306 l 0.26342,1.06738 v 1.02809 c 0,0.56545 -0.0855,1.45515 -0.18991,1.97712 l -0.18991,0.94902 -0.61644,1.34317 -0.61643,1.34316 -1.05473,1.07855 -1.05472,1.07855 -1.05284,0.57243 c -0.57906,0.31483 -1.51082,0.69583 -2.07057,0.84665 l -1.01773,0.27421 h -1.33037 -1.33038 l -1.17514,-0.37547 c -0.64633,-0.20651 -1.35763,-0.49916 -1.58067,-0.65033 l -0.40552,-0.27487 -10.13141,10.45542 -10.13141,10.45542 -0.46805,0.98498 -0.46806,0.98499 -0.0473,9.49168 -0.0473,9.49167 8.57998,-8.87169 8.57999,-8.87169 -0.56903,-1.14225 -0.56903,-1.14224 0.003,-1.89543 0.003,-1.89543 0.42561,-0.89544 0.42562,-0.89545 0.74916,-0.77541 0.74917,-0.77542 0.98619,-0.4782 0.9862,-0.4782 1.64467,0.003 1.64466,0.003 0.81651,0.41706 c 0.44908,0.22938 1.16685,0.73606 1.59503,1.12595 l 0.77852,0.70889 0.56901,1.19565 0.56901,1.19565 -0.006,1.61556 -0.006,1.61556 -0.47153,1.00501 -0.47153,1.005 -0.91202,0.89227 -0.91201,0.89227 -1.02294,0.39591 -1.02294,0.39592 -1.13673,0.10504 -1.13672,0.10505 -9.89843,10.20755 -9.89843,10.20756 -0.48895,1.09446 -0.48896,1.09446 -0.0513,10.19284 -0.0513,10.19283 1.43632,-1.34092 c 2.03779,-1.90244 9.57773,-7.91115 15.33226,-12.21855 l 0.91172,-0.68244 0.74358,-1.01237 c 1.0284,-1.40013 1.42112,-2.10398 1.97354,-3.53713 l 0.47645,-1.23608 0.0552,-7.53287 0.0552,-7.53286 8.26452,-8.54789 8.26452,-8.5479 -0.57029,-1.20125 -0.57029,-1.20126 -0.19076,-1.36168 -0.19076,-1.36169 0.19271,-1.32464 0.19271,-1.32464 0.62545,-1.32429 0.62544,-1.32429 1.07579,-1.11285 1.07578,-1.11286 1.10971,-0.56391 1.1097,-0.5639 1.29842,-0.28226 1.29842,-0.28225 1.03874,0.11193 c 0.57131,0.0616 1.52101,0.27474 2.11045,0.47372 l 1.0717,0.36178 1.00577,0.67305 1.00577,0.67304 0.82771,0.95325 0.82771,0.95326 0.60152,1.2937 0.60151,1.29369 0.19475,1.42455 0.19475,1.42454 -0.27988,1.42001 -0.27988,1.42 -0.54767,1.15096 -0.54767,1.15095 -1.09827,1.11945 -1.09826,1.11946 -1.20028,0.62116 -1.20028,0.62117 -1.24776,0.23066 -1.24775,0.23067 -1.33248,-0.2009 -1.33248,-0.2009 -1.01665,-0.4651 -1.01665,-0.46511 -2.60497,2.6472 c -1.43273,1.45596 -4.92265,5.02436 -7.75538,7.92977 l -5.15041,5.28256 -0.002,6.17966 -0.002,6.17967 -0.32579,1.633 c -0.17919,0.89814 -0.48895,2.01454 -0.68836,2.48088 l -0.36257,0.84789 0.30111,-0.12811 c 0.16561,-0.0705 3.1057,-1.17296 6.53354,-2.45001 l 6.23243,-2.3219 0.41539,-0.4786 c 0.22847,-0.26322 1.13965,-1.2442 2.02485,-2.17993 l 1.60944,-1.70134 -0.24763,-1.07453 -0.24762,-1.07453 -0.003,-1.26076 -0.003,-1.26077 0.25824,-1.02562 c 0.36147,-1.4356 0.95821,-2.57768 1.93402,-3.70149 l 0.83739,-0.96439 1.02625,-0.68674 1.02625,-0.68674 1.11274,-0.35553 1.11275,-0.35553 h 1.42188 1.42189 l 0.94032,0.2886 c 0.51718,0.15873 1.30721,0.4808 1.75563,0.71569 l 0.81532,0.42709 1.10531,1.06959 1.10532,1.06959 0.52986,1.03536 c 0.29142,0.56945 0.65415,1.47308 0.80606,2.00807 l 0.27619,0.97272 -0.002,1.35543 -0.002,1.35543 -0.24739,0.96153 c -0.13607,0.52884 -0.46056,1.41533 -0.72108,1.96997 l -0.47368,1.00844 -1.13794,1.17715 -1.13794,1.17715 -0.97485,0.49 c -0.53617,0.2695 -1.39313,0.60517 -1.90435,0.74593 l -0.92951,0.25592 -1.32347,0.002 -1.32346,0.002 -1.11275,-0.35553 -1.11274,-0.35554 -1.05389,-0.70463 -1.05389,-0.70463 -2.01742,2.13793 c -2.5554,2.70804 -3.35312,3.07167 -18.09613,8.24886 l -2.51029,0.88152 -1.5581,0.79431 -1.55811,0.79431 -3.63796,2.82498 c -2.00088,1.55375 -4.71082,3.69987 -6.02209,4.76915 l -2.38414,1.94417 -0.60098,0.81421 -0.60099,0.8142 -0.25856,0.90067 -0.25856,0.90068 1.4e-4,1.89269 c 2.4e-4,3.09324 0.47602,7.50258 1.15112,10.66802 l 0.26736,1.25361 0.57725,1.25888 0.57724,1.25888 0.90695,1.21529 0.90694,1.21529 1.65849,1.12456 c 1.8282,1.23964 3.42427,2.20714 5.34598,3.24061 l 1.26378,0.67965 -0.0519,0.37607 -0.0519,0.37607 -18.28591,0.0456 -18.285909,0.0456 z m -31.35237,-52.67407 0.9183,-0.28211 0.81942,-0.84765 0.81942,-0.84765 0.30649,-0.95454 0.30648,-0.95455 -0.0892,-1.01794 -0.0892,-1.01793 -0.35028,-0.70339 c -0.46198,-0.9277 -1.32417,-1.76219 -2.28497,-2.21157 l -0.77905,-0.36438 h -1.03874 -1.03874 l -0.69249,0.32655 c -0.97808,0.46123 -1.74847,1.1812 -2.29728,2.14692 l -0.47269,0.8318 v 1.34686 1.34687 l 0.44287,0.89173 0.44288,0.89174 0.84646,0.66216 0.84646,0.66215 0.61502,0.17001 c 0.33826,0.0935 0.89302,0.17833 1.2328,0.18851 l 0.61779,0.0185 z m 102.418779,-0.0165 0.84708,-0.29858 0.79948,-0.82703 0.79948,-0.82702 0.28863,-0.87627 0.28863,-0.87627 v -0.7421 -0.74209 l -0.28863,-0.87627 -0.28863,-0.87627 -0.80349,-0.83118 -0.80349,-0.83118 -0.92247,-0.31695 -0.92247,-0.31695 -0.9376,0.1001 -0.9376,0.10011 -0.89519,0.52317 -0.89519,0.52318 -0.56466,0.84761 -0.56466,0.84761 -0.19439,0.74547 -0.19438,0.74547 0.0978,0.8571 0.0978,0.8571 0.47769,0.90791 0.47769,0.90791 0.60531,0.51614 c 0.33292,0.28388 0.91983,0.63167 1.30424,0.77286 l 0.69894,0.25671 0.79149,0.0141 0.79149,0.0141 z m -75.780539,-23.52475 0.57307,-0.36143 0.26619,-0.65905 0.2662,-0.65905 -0.1944,-0.6712 -0.19439,-0.67119 -0.47175,-0.34106 c -0.25946,-0.18758 -0.69383,-0.39667 -0.96526,-0.46465 l -0.49352,-0.1236 -0.58559,0.19992 -0.58558,0.19992 -0.32392,0.4796 c -0.17815,0.26378 -0.37554,0.70054 -0.43865,0.97058 l -0.11474,0.49099 0.2522,0.62439 0.2522,0.6244 0.57307,0.36143 0.57306,0.36142 h 0.51937 0.51937 z m 48.409359,-0.18818 0.60659,-0.55095 0.10594,-0.58418 0.10595,-0.58417 -0.26007,-0.64387 -0.26006,-0.64386 -0.52441,-0.28053 -0.52441,-0.28053 h -0.53656 -0.53657 l -0.50784,0.27167 -0.50784,0.27166 -0.26262,0.52534 c -0.3333,0.66674 -0.33354,1.31446 -7.5e-4,1.98019 l 0.26186,0.52383 0.47391,0.266 0.47392,0.266 0.64318,0.007 0.64319,0.007 z m -71.234559,-4.56787 0.92264,-0.28344 0.91227,-0.9437 0.91226,-0.9437 0.274,-0.95443 c 0.34475,-1.2009 0.34475,-1.83155 0,-3.03245 l -0.274,-0.95443 -0.91513,-0.94666 -0.91513,-0.94667 -1.0012,-0.30108 -1.00121,-0.30109 -0.76845,0.10896 c -0.42265,0.0599 -1.09945,0.26042 -1.50401,0.44554 l -0.73556,0.33658 -0.63071,0.65244 c -0.78618,0.81328 -1.11891,1.46937 -1.33052,2.62364 l -0.16538,0.90212 0.18058,0.87103 0.18057,0.87103 0.49943,0.81464 0.49942,0.81464 0.69355,0.47479 c 1.44132,0.98668 2.58797,1.17719 4.16658,0.69224 z m 94.877239,-0.2679 c 0.9567,-0.44746 1.8148,-1.27584 2.30436,-2.22454 l 0.36965,-0.71635 0.005,-1.43271 0.005,-1.4327 -0.33529,-0.69906 c -0.43015,-0.89681 -1.30096,-1.79464 -2.20168,-2.26998 l -0.70999,-0.37469 -0.92559,-0.0988 -0.9256,-0.0988 -0.75737,0.21935 -0.75737,0.21936 -0.83982,0.65661 -0.83982,0.65661 -0.48478,0.95994 -0.48477,0.95994 0.002,1.1884 0.002,1.18839 0.40992,0.89544 0.40991,0.89545 0.58385,0.5719 c 0.32112,0.31455 0.93443,0.73587 1.36291,0.93628 l 0.77905,0.36438 h 1.1253 1.1253 z m -74.046129,-20.04525 0.92913,-0.35961 0.71148,-0.62999 0.71149,-0.62998 0.48664,-1.02515 0.48664,-1.02515 -0.005,-1.25361 -0.005,-1.25362 -0.35986,-0.815 c -0.19792,-0.44824 -0.61014,-1.10988 -0.91605,-1.4703 l -0.5562,-0.6553 -0.98362,-0.49967 -0.98361,-0.49967 h -1.29843 -1.29842 l -0.98361,0.49967 -0.98362,0.49967 -0.5562,0.6553 c -0.70503,0.83066 -1.18739,1.95438 -1.31414,3.06146 l -0.0991,0.86536 0.27584,0.98155 0.27584,0.98155 0.52257,0.74624 0.52257,0.74625 0.68563,0.46936 c 0.3771,0.25815 0.98147,0.57853 1.34304,0.71195 l 0.6574,0.24258 0.9024,0.008 0.9024,0.008 z m 54.916039,-0.16112 c 0.96942,-0.44525 1.74472,-1.16737 2.29727,-2.1397 l 0.4727,-0.83179 v -1.52225 -1.52225 l -0.34051,-0.71041 c -0.18728,-0.39073 -0.64309,-1.02343 -1.01291,-1.406 l -0.67241,-0.69557 -0.78242,-0.35803 -0.78242,-0.35803 h -1.00768 -1.00769 l -0.87345,0.30011 -0.87346,0.30012 -0.74207,0.74755 -0.74207,0.74755 -0.33276,0.71636 -0.33276,0.71635 -0.0724,1.10934 -0.0724,1.10934 0.27178,0.82512 0.27178,0.82511 0.53342,0.69671 c 0.63937,0.83509 1.52084,1.42605 2.58915,1.73584 l 0.78762,0.22839 0.86561,-0.0979 0.86562,-0.0979 z m -27.87204,-11.63914 c 0.44319,-0.2028 1.09574,-0.60627 1.45009,-0.8966 l 0.64429,-0.52786 0.51053,-0.95339 0.51053,-0.95338 v -1.52225 -1.52225 l -0.51139,-0.95503 -0.5114,-0.95503 -0.52734,-0.46153 c -0.29004,-0.25384 -0.95582,-0.66605 -1.47952,-0.91603 l -0.95218,-0.4545 h -1.1253 -1.12529 l -0.95218,0.4545 c -0.5237,0.24998 -1.20085,0.67208 -1.50478,0.93802 l -0.55261,0.48352 -0.52941,1.09596 -0.52942,1.09596 v 1.10357 1.10356 l 0.26908,0.81692 0.26909,0.81692 0.59951,0.72453 c 0.72425,0.87528 1.60561,1.46122 2.66247,1.77006 l 0.78761,0.23015 0.8959,-0.0735 0.8959,-0.0736 z"
         id="path236-5" /></g></g></svg>
