<?xml version="1.0" encoding="UTF-8" standalone="no"?>
<!-- Created with Inkscape (http://www.inkscape.org/) -->

<svg
   width="207.0757mm"
   height="205.05649mm"
   viewBox="0 0 207.0757 205.05649"
   version="1.1"
   id="svg1"
   xml:space="preserve"
   inkscape:version="1.3 (0e150ed, 2023-07-21)"
   sodipodi:docname="ogb_logo.svg"
   inkscape:export-filename="ogb_logo.svg"
   inkscape:export-xdpi="231.51123"
   inkscape:export-ydpi="231.51123"
   xmlns:inkscape="http://www.inkscape.org/namespaces/inkscape"
   xmlns:sodipodi="http://sodipodi.sourceforge.net/DTD/sodipodi-0.dtd"
   xmlns:xlink="http://www.w3.org/1999/xlink"
   xmlns="http://www.w3.org/2000/svg"
   xmlns:svg="http://www.w3.org/2000/svg"><sodipodi:namedview
     id="namedview1"
     pagecolor="#ffffff"
     bordercolor="#999999"
     borderopacity="1"
     inkscape:showpageshadow="2"
     inkscape:pageopacity="0"
     inkscape:pagecheckerboard="0"
     inkscape:deskcolor="#d1d1d1"
     inkscape:document-units="mm"
     inkscape:zoom="1.4142136"
     inkscape:cx="318.90516"
     inkscape:cy="711.34942"
     inkscape:window-width="1456"
     inkscape:window-height="1027"
     inkscape:window-x="2907"
     inkscape:window-y="27"
     inkscape:window-maximized="0"
     inkscape:current-layer="g209"
     inkscape:export-bgcolor="#fff5f5f0" /><defs
     id="defs1"><linearGradient
       id="linearGradient217"
       inkscape:collect="always"><stop
         style="stop-color:#3d9390;stop-opacity:0.99204773;"
         offset="0.46412215"
         id="stop217" /><stop
         style="stop-color:#358255;stop-opacity:0.83896619;"
         offset="1"
         id="stop218" /></linearGradient><linearGradient
       id="linearGradient179"
       inkscape:collect="always"><stop
         style="stop-color:#18838c;stop-opacity:0.75126904;"
         offset="0"
         id="stop179" /><stop
         style="stop-color:#047047;stop-opacity:0.85786802;"
         offset="1"
         id="stop180" /></linearGradient><linearGradient
       id="swatch100"
       inkscape:swatch="solid"><stop
         style="stop-color:#010101;stop-opacity:0.08058609;"
         offset="0"
         id="stop100" /></linearGradient><linearGradient
       inkscape:collect="always"
       xlink:href="#linearGradient179"
       id="linearGradient180"
       x1="41.92746"
       y1="143.09644"
       x2="168.07254"
       y2="143.09644"
       gradientUnits="userSpaceOnUse"
       gradientTransform="translate(4.476814,7.73523)" /><linearGradient
       inkscape:collect="always"
       xlink:href="#linearGradient175"
       id="linearGradient176"
       x1="65.763275"
       y1="111.21149"
       x2="66.184334"
       y2="111.21149"
       gradientUnits="userSpaceOnUse"
       gradientTransform="matrix(0.10308807,0.07557004,-0.0950541,0.08195722,139.6468,155.20588)" /><linearGradient
       id="linearGradient175"
       inkscape:collect="always"><stop
         style="stop-color:#bfc037;stop-opacity:1;"
         offset="0"
         id="stop175" /><stop
         style="stop-color:#e5bb2f;stop-opacity:0.86294419;"
         offset="1"
         id="stop176" /></linearGradient><radialGradient
       inkscape:collect="always"
       xlink:href="#linearGradient217"
       id="radialGradient218"
       cx="117.15062"
       cy="211.25659"
       fx="117.15062"
       fy="211.25659"
       r="30.697783"
       gradientTransform="matrix(0.98238903,0,0,0.37194247,9.4662586,120.79375)"
       gradientUnits="userSpaceOnUse" /></defs><g
     inkscape:label="Ebene 1"
     inkscape:groupmode="layer"
     id="layer1"
     transform="translate(-1.4613049,-36.990001)"><g
       id="g209"
       transform="matrix(1.1845802,0,0,1.1550114,-25.862009,-39.69287)"
       inkscape:export-filename="ogb_new_logo.svg"
       inkscape:export-xdpi="231.51123"
       inkscape:export-ydpi="231.51123"><path
         style="fill:none;fill-opacity:1;stroke:#020306;stroke-width:1.32044;stroke-linecap:round;stroke-linejoin:round;stroke-dasharray:none;stroke-opacity:0.557858;paint-order:markers fill stroke"
         id="path186"
         sodipodi:type="arc"
         sodipodi:cx="110.47121"
         sodipodi:cy="155.1609"
         sodipodi:rx="86.743752"
         sodipodi:ry="88.106255"
         sodipodi:start="0"
         sodipodi:end="6.1962847"
         sodipodi:open="true"
         sodipodi:arc-type="arc"
         d="M 197.21496,155.1609 A 86.743752,88.106255 0 0 1 112.35558,243.24637 86.743752,88.106255 0 0 1 23.809325,158.98794 86.743752,88.106255 0 0 1 104.82164,67.241714 86.743752,88.106255 0 0 1 196.88763,147.51405" /><g
         id="g193"
         transform="matrix(1.1380253,0,0,0.92951889,-13.994655,2.6546179)"><path
           style="fill:#004158;fill-opacity:1;stroke:none;stroke-width:1.246;stroke-linecap:round;stroke-linejoin:round;stroke-dasharray:none;stroke-opacity:0.967033;paint-order:markers fill stroke"
           d="m 70.045668,129.1261 -4.392131,1.08761"
           id="path169" /><path
           style="fill:url(#linearGradient180)"
           d="m 86.349442,222.41679 c -0.097,-0.097 -0.17639,-0.26989 -0.17639,-0.38417 0,-0.41088 2.53523,-1.93846 6.325763,-3.81151 6.72359,-3.3224 8.568315,-5.38848 9.276445,-10.38959 0.44149,-3.11795 1.34428,-12.99842 1.36216,-14.90792 0.0307,-3.2758 -1.13459,-4.94648 -7.648335,-10.9657 -4.564443,-4.21791 -5.708454,-4.86546 -13.020203,-7.3698 -6.40178,-2.19267 -8.56851,-2.99175 -9.92187,-3.65911 -0.58208,-0.28703 -2.80883,-2.25307 -4.948321,-4.36895 l -3.889979,-3.84708 -1.06146,0.95896 c -1.907441,1.72326 -3.55059,2.38324 -6.239821,2.50627 -2.00139,0.0915 -2.6345,0.0137 -3.96875,-0.48833 -2.201319,-0.82818 -4.580659,-3.20892 -5.402909,-5.40606 -0.69507,-1.8573 -0.8336,-4.47092 -0.32956,-6.21771 0.88484,-3.06651 4.01687,-5.98361 7.11552,-6.62724 6.20283,-1.2884 11.57815,2.84618 11.83033,9.09963 l 0.073,1.81094 3.54326,3.56571 c 1.94879,1.96115 3.98804,3.79692 4.53167,4.07951 0.54364,0.28258 2.27004,0.91041 3.83646,1.39517 1.56642,0.48477 3.47312,1.13632 4.2371,1.44789 0.76399,0.31158 1.38906,0.50634 1.38906,0.43281 0,-0.0735 -0.32742,-0.63733 -0.7276,-1.25291 l -0.7276,-1.11922 -0.1323,-8.00275 -0.13229,-8.00275 -8.68129,-8.68368 -8.68129,-8.68367 -1.29893,0.64283 c -2.45336,1.21415 -5.82303,1.06544 -8.35691,-0.36882 -1.6193,-0.91659 -3.67539,-3.30819 -4.35717,-5.06819 -0.68748,-1.77469 -0.80423,-4.63748 -0.25624,-6.28297 0.56006,-1.6817 2.097051,-3.79428 3.56002,-4.8932 1.93998,-1.45723 3.65443,-1.94587 6.31701,-1.80045 2.63024,0.14365 4.54545,0.98231 6.43311,2.81701 2.87061,2.7901 3.530781,7.28917 1.628471,11.09817 l -0.5782,1.15773 1.71175,1.61924 c 0.941469,0.89058 5.3134,5.1745 9.7154,9.51983 l 8.003649,7.90057 0.006,7.45723 c 0.005,6.66565 0.0573,7.56953 0.4914,8.51553 0.54214,1.18157 2.95061,3.55902 9.821533,9.69507 2.546621,2.27422 5.320285,4.75829 6.163695,5.52016 0.84342,0.76185 1.57624,1.34102 1.62851,1.28706 0.27005,-0.27882 0.71331,-7.70511 0.75699,-12.6823 0.0546,-6.22704 -0.10454,-7.15281 -1.62315,-9.44069 -1.21664,-1.83291 -16.305537,-17.81612 -17.350677,-18.37903 -0.27652,-0.14894 -1.27782,-0.36691 -2.2251,-0.48439 -2.02654,-0.25133 -3.44971,-1.12363 -4.67308,-2.86428 -0.74521,-1.06031 -0.80114,-1.30294 -0.80114,-3.47555 0,-2.17229 0.056,-2.41535 0.80064,-3.47484 1.66854,-2.37404 4.62866,-3.53319 7.09208,-2.77717 2.4418,0.74937 3.8239,2.13069 4.57957,4.577 0.464743,1.5045 0.324073,3.06617 -0.4297,4.77019 -0.52197,1.18 -0.52224,1.204 -0.021,1.89425 0.58192,0.80133 15.176647,15.38349 15.396747,15.38349 0.27971,0 0.48883,-18.36236 0.22952,-20.15388 -0.14054,-0.97094 -0.50456,-2.45922 -0.80894,-3.30729 -0.52184,-1.45398 -1.12154,-2.10431 -10.510174,-11.39769 -7.327634,-7.25328 -10.118334,-9.85573 -10.568653,-9.85573 -0.33654,0 -1.503061,0.26219 -2.59227,0.58264 -1.740301,0.512 -2.18065,0.54819 -3.63244,0.29845 -3.40218,-0.58523 -6.173361,-2.63231 -7.55541,-5.58119 -0.97446,-2.07923 -1.00243,-5.25543 -0.0669,-7.60107 1.853399,-4.647112 7.57056,-7.070421 12.26327,-5.19798 1.89059,0.75437 4.32356,2.946683 5.22175,4.705256 0.57005,1.116087 0.65608,1.634283 0.65608,3.951844 0,2.27086 -0.0955,2.87113 -0.64224,4.03852 l -0.64224,1.3712 7.256823,7.06676 c 11.245214,10.95071 12.039874,11.71141 12.234194,11.71141 0.1001,0 0.18199,-6.36376 0.18199,-14.1417 V 97.736872 l -1.69461,-0.808763 c -3.9477,-1.884068 -6.361514,-6.481263 -5.44569,-10.371516 0.69867,-2.967808 2.67675,-5.511049 5.25478,-6.756144 1.25075,-0.604066 1.84805,-0.72094 3.73761,-0.731347 1.98124,-0.01091 2.45517,0.08534 3.98128,0.808521 2.26295,1.072357 3.42477,2.123018 4.42144,3.998422 1.18368,2.227275 1.57167,4.385547 1.1387,6.334143 -0.18901,0.850591 -0.57613,2.004849 -0.86029,2.565019 -1.08079,2.130638 -3.66228,4.332249 -5.6118,4.786005 l -0.76713,0.17855 0.14176,14.154298 c 0.078,7.78485 0.21095,14.22349 0.29554,14.30807 0.0846,0.0846 1.67334,-1.32072 3.53056,-3.12289 1.85723,-1.80218 5.93898,-5.769 9.07055,-8.81517 3.13157,-3.04616 5.92154,-5.7478 6.19994,-6.00362 0.4971,-0.45681 0.49305,-0.49438 -0.22613,-2.09693 -2.83736,-6.322485 1.74305,-13.298874 8.71579,-13.274938 5.55669,0.01907 9.88759,4.39953 9.60615,9.716058 -0.24073,4.54733 -3.49948,8.05616 -8.4958,9.14776 -1.39814,0.30547 -1.721,0.28187 -3.60956,-0.26383 -1.14074,-0.32963 -2.25825,-0.55835 -2.48336,-0.50829 -0.2251,0.0501 -4.67299,4.31897 -9.88419,9.48645 -8.44236,8.37153 -9.60466,9.62579 -10.66554,11.50937 l -1.19062,2.11396 0.0716,9.92293 c 0.0394,5.45762 0.17428,10.27965 0.29975,10.71563 l 0.22813,0.79269 8.00202,-7.98429 8.00202,-7.98429 -0.54867,-0.88777 c -2.02982,-3.28431 -0.95919,-7.55598 2.32362,-9.27094 2.62105,-1.36925 5.45325,-0.91424 7.58955,1.21933 1.5834,1.58136 2.08276,2.97036 1.85766,5.16717 -0.30831,3.00882 -2.54455,5.25101 -5.54703,5.56178 -1.46728,0.15187 -1.86884,0.31389 -2.73862,1.10499 -1.4602,1.32813 -6.13866,6.18173 -11.7096,12.14798 -6.28595,6.73198 -6.70496,7.49712 -6.86516,12.53649 -0.1286,4.04552 0.46438,15.24476 0.80719,15.24476 0.24763,0 8.26841,-7.11853 13.52117,-12.0002 1.71755,-1.59621 3.41295,-3.39726 3.76755,-4.00234 0.89048,-1.51948 1.18143,-4.72419 1.00308,-11.04859 -0.16885,-5.98748 -0.4556,-5.27251 3.68709,-9.19314 1.41089,-1.33527 5.4947,-5.31088 9.07514,-8.8347 l 6.50989,-6.40695 -0.54168,-0.91807 c -0.86194,-1.46089 -1.44073,-4.12918 -1.26349,-5.8249 0.34194,-3.27153 2.14894,-5.7445 5.3238,-7.28594 1.69528,-0.82308 2.04566,-0.89559 4.3278,-0.89559 2.21446,0 2.6636,0.0861 4.15042,0.7957 2.00236,0.95564 3.8572,2.76255 4.78729,4.66359 0.62034,1.26793 0.67439,1.63333 0.58981,3.98755 -0.0762,2.12187 -0.21979,2.8626 -0.79192,4.08606 -0.91693,1.96078 -2.52425,3.53127 -4.61579,4.51002 -2.46799,1.15491 -4.21379,1.24378 -6.85264,0.34882 l -2.11667,-0.71786 -8.62695,8.80446 -8.62695,8.80446 -0.17044,3.16993 c -0.0937,1.74347 -0.17045,5.19544 -0.17045,7.67106 v 4.50113 l -0.81703,1.4477 c -0.6711,1.18912 -0.73017,1.41319 -0.33073,1.25453 1.33817,-0.53154 4.19853,-1.52063 6.53902,-2.26116 1.43723,-0.45474 2.92551,-1.02785 3.3073,-1.27358 0.8372,-0.53886 6.16222,-5.87714 6.90979,-6.92701 0.35454,-0.49791 0.53228,-1.17247 0.53437,-2.02812 0.007,-2.68256 0.92707,-4.94863 2.75112,-6.77268 4.76332,-4.76331 12.81933,-3.26712 15.71894,2.91937 0.60857,1.29843 0.70755,1.85048 0.69821,3.89416 -0.009,2.06492 -0.11127,2.5889 -0.7666,3.94442 -0.91611,1.89493 -2.66357,3.62747 -4.63555,4.59595 -1.31586,0.64624 -1.75089,0.71956 -4.24426,0.71536 -3.18276,-0.005 -4.53342,-0.48584 -6.42553,-2.28577 l -1.05681,-1.00531 -1.60741,1.48816 c -0.88408,0.81851 -2.57919,2.57966 -3.76692,3.9137 l -2.15952,2.4255 -2.8768,1.09406 c -1.58224,0.60172 -5.43664,1.94417 -8.56534,2.98321 -8.0107,2.66035 -8.33649,2.85586 -14.10432,8.4637 -6.17922,6.00781 -6.41298,6.4103 -6.37323,10.97327 0.0313,3.59091 0.97096,12.63466 1.5772,15.17957 0.54824,2.30142 1.1515,3.36966 2.80592,4.96871 1.71834,1.66083 3.38877,2.71943 7.36318,4.66626 3.09205,1.51462 5.15392,2.9443 4.88164,3.38487 -0.17219,0.2786 -45.966877,0.34486 -46.244827,0.0669 z m -28.14294,-60.84028 c 1.21338,-0.61199 2.2869,-1.68297 2.72051,-2.71408 0.58499,-1.39105 0.48893,-4.153 -0.1822,-5.23891 -0.750481,-1.2143 -2.96252,-2.46216 -4.37026,-2.46536 -2.16727,-0.005 -4.369111,1.21356 -5.25514,2.90821 -0.49777,0.95203 -0.75409,3.4464 -0.43877,4.26981 0.38969,1.01759 1.82597,2.56118 2.92229,3.14064 1.193609,0.63086 3.453409,0.6798 4.603569,0.0997 z M 165.75524,161.221 c 1.33633,-0.96803 2.38287,-2.70543 2.60475,-4.32421 0.36376,-2.65392 -1.90792,-5.35017 -4.78049,-5.67395 -3.12898,-0.35268 -5.96895,2.27717 -5.96895,5.5273 0,3.12824 2.19815,5.24597 5.4504,5.25097 1.3705,0.002 1.77691,-0.11557 2.69429,-0.78011 z M 86.987152,136.88854 c 1.28408,-1.28409 1.01615,-3.31177 -0.54422,-4.11867 -1.51586,-0.78388 -2.88374,-0.41764 -3.59785,0.96329 -1.40371,2.71448 1.99437,5.30307 4.14207,3.15538 z m 48.759188,0.0759 c 0.55888,-0.55887 0.69754,-0.94866 0.69754,-1.96086 0,-1.08588 -0.11434,-1.35953 -0.81405,-1.94829 -1.76766,-1.48739 -4.21303,-0.34925 -4.21303,1.96085 0,2.33018 2.72252,3.55531 4.32954,1.9483 z m -73.996818,-6.85185 c 4.12985,-2.05799 4.15969,-7.83275 0.0513,-9.9287 -2.50941,-1.28021 -6.19081,0.0992 -7.40614,2.77499 -0.9436,2.07756 -0.47445,4.95721 1.02916,6.31699 0.74391,0.67275 2.92598,1.47989 4.04048,1.49457 0.51713,0.007 1.54547,-0.28922 2.28519,-0.65785 z m 99.989398,0.16556 c 3.33652,-1.51525 4.34201,-5.66615 2.03049,-8.38239 -1.1113,-1.30588 -2.19704,-1.7842 -4.3303,-1.90769 l -2.01473,0.20807 -1.46062,1.09473 c -1.9355,1.45066 -2.20065,3.04182 -1.80127,4.82393 0.43922,1.95988 0.82108,2.52015 2.46658,3.61897 1.82277,1.21721 3.28523,1.37301 5.10985,0.54438 z M 81.214012,107.37693 c 2.12685,-0.88865 3.89952,-3.36334 3.89231,-5.43375 -0.007,-1.90728 -1.33892,-3.828335 -3.191951,-4.602582 -2.99926,-1.253169 -5.47723,-0.60912 -6.87681,1.787347 -0.72238,1.236915 -0.78723,1.541525 -0.71637,3.365015 0.0675,1.73627 0.18013,2.139 0.84069,3.00503 0.85476,1.12064 3.01727,2.25944 4.29813,2.26344 0.45517,10e-4 1.24447,-0.1716 1.754001,-0.3845 z m 60.426368,-0.16006 c 2.02276,-0.9792 3.26918,-2.94127 3.26611,-5.1414 -0.002,-1.21071 -1.15152,-3.417308 -2.19573,-4.213766 -1.35402,-1.032766 -2.56876,-1.301385 -4.27926,-0.946287 -0.7842,0.162799 -1.82011,0.557097 -2.30203,0.876216 -1.09764,0.726839 -2.33142,3.094537 -2.33142,4.474117 0,1.95777 1.4871,3.9441 3.70416,4.94769 1.52223,0.68906 2.71981,0.69006 4.13817,0.003 z M 111.53804,93.432476 c 1.99205,-0.734976 3.20675,-2.599588 3.20865,-4.925403 0.002,-2.064217 -0.4468,-3.173836 -1.70045,-4.207204 -2.1084,-1.737923 -4.86976,-1.841005 -7.12894,-0.266126 -1.57298,1.09653 -2.28388,4.453961 -1.38905,6.560129 0.54233,1.276453 2.02123,2.530459 3.4033,2.885755 0.62038,0.159483 1.24702,0.330726 1.39254,0.38054 0.30193,0.103356 1.29411,-0.08831 2.21395,-0.427691 z"
           id="path171"
           sodipodi:nodetypes="csssssssscsccsssscsssssscccccsssssssscsscccssscsssssssssssssssssscsssccssscsssssssssccssssssssscssccscccsssssssssssssscssssssssssccccscssssscsscsscscsscssssssssccssscssssssssscsssssssssssssscssssscssssscsscscsccsssssccscssssss" /><path
           style="fill:url(#linearGradient176);stroke:none;stroke-width:0.00057214;stroke-opacity:0.967033"
           d="m 135.86767,169.3192 c 0.001,-0.002 0.001,-0.003 0.001,-0.003 -5.6e-4,3.4e-4 -0.003,8.9e-4 -0.004,8.9e-4 -10e-4,1.1e-4 -0.003,-3.3e-4 -0.005,-8.9e-4 -0.002,-5.5e-4 -0.004,-0.002 -0.004,-0.002 -8e-5,-2.2e-4 0.005,-0.001 0.007,-0.001 7e-4,0 0.002,6e-5 0.002,1.1e-4 5.6e-4,7e-5 9.8e-4,2.2e-4 0.001,7e-5 3e-5,-5e-5 -0.001,-8.9e-4 -0.003,-0.002 -0.003,-0.001 -0.004,-0.002 -0.005,-0.003 -0.003,-0.002 -0.004,-0.004 -0.006,-0.006 -8.4e-4,-0.002 -0.002,-0.004 -0.002,-0.004 1.4e-4,-3.4e-4 0.005,0.002 0.008,0.004 0.003,0.002 0.005,0.003 0.007,0.006 0.002,0.002 0.002,0.002 2.8e-4,-7.8e-4 -0.001,-0.002 -0.002,-0.004 -0.003,-0.007 -0.002,-0.004 -0.002,-0.009 -0.001,-0.0123 2.8e-4,-0.002 4.2e-4,-0.002 5.6e-4,-0.002 0.003,0.003 0.003,0.004 0.005,0.006 0.001,0.002 0.003,0.006 0.004,0.009 4.2e-4,0.002 0.001,0.005 0.001,0.008 2.8e-4,7.8e-4 1.4e-4,0.002 2.8e-4,0.002 1.2e-4,6e-5 1.4e-4,-6.7e-4 1.4e-4,-10e-4 -1.4e-4,-3.3e-4 4.2e-4,-0.004 7e-4,-0.005 4.2e-4,-0.002 0.001,-0.004 0.002,-0.006 0.002,-0.003 0.004,-0.006 0.006,-0.008 0.002,-0.001 0.005,-0.004 0.005,-0.003 4.2e-4,3.4e-4 5.6e-4,0.006 1.4e-4,0.009 -5.6e-4,0.004 -0.002,0.007 -0.004,0.0102 -10e-4,0.002 -0.002,0.003 -0.005,0.005 -7e-4,6.7e-4 -0.001,0.001 -0.001,0.002 l -9e-5,4.5e-4 2.8e-4,-2.3e-4 c 0.001,-0.001 0.005,-0.003 0.007,-0.004 0.002,-5.6e-4 0.006,-0.002 0.008,-0.002 0.002,-2.2e-4 0.007,2.2e-4 0.009,5.6e-4 2.8e-4,6e-5 2.8e-4,7e-5 -8e-5,5.5e-4 -0.001,0.002 -0.003,0.004 -0.006,0.005 -0.004,0.002 -0.01,0.004 -0.0143,0.004 -5.6e-4,2e-5 -9.8e-4,6e-5 -9.8e-4,6e-5 -1.4e-4,2.3e-4 5.6e-4,4.5e-4 0.002,4.5e-4 0.002,1.1e-4 0.004,6.7e-4 0.006,10e-4 0.002,6.7e-4 0.002,6.7e-4 0.005,0.002 0.003,0.002 0.005,0.003 0.006,0.004 8e-5,2.2e-4 -8e-5,2.2e-4 -0.001,3.3e-4 -0.003,4.5e-4 -0.006,2.2e-4 -0.009,-4.4e-4 -0.003,-7.8e-4 -0.004,-0.001 -0.008,-0.003 -0.002,-7.8e-4 -0.003,-0.002 -0.003,-0.002 -3e-5,5e-5 1.4e-4,4.5e-4 7e-4,10e-4 4.2e-4,4.5e-4 0.001,0.001 0.002,0.002 8.4e-4,0.002 0.002,0.005 0.002,0.005 l 3e-5,4.5e-4 -8.5e-4,-5.6e-4 c -0.005,-0.003 -0.007,-0.006 -0.008,-0.009 -2.8e-4,-7.8e-4 -4.2e-4,-0.002 -4.2e-4,-0.002 3e-5,-1.1e-4 -5.6e-4,0.001 -0.001,0.003 l -0.002,0.005 v 0 l -0.002,-0.001 z"
           id="path175"
           sodipodi:nodetypes="ccsssssssssssssssssssssscsssssscsssscssssssscsssssscsssscccc"
           inkscape:transform-center-x="0.010465215"
           inkscape:transform-center-y="0.029644689" /><rect
           style="fill:#d4f6f1;fill-opacity:0.901961;stroke:none;stroke-width:1.4044;stroke-linecap:round;stroke-linejoin:round;stroke-dasharray:none;stroke-opacity:0.967033;paint-order:markers fill stroke"
           id="rect185"
           width="0.60151333"
           height="128.45392"
           x="109.32331"
           y="94.138725"
           rx="0.045536581"
           ry="0.00024681923"
           transform="skewX(-0.04172464)" /></g><text
         xml:space="preserve"
         style="font-style:normal;font-variant:normal;font-weight:normal;font-stretch:normal;font-size:28.4692px;font-family:'.Apple Color Emoji UI';-inkscape-font-specification:'.Apple Color Emoji UI, Normal';font-variant-ligatures:normal;font-variant-caps:normal;font-variant-numeric:normal;font-variant-east-asian:normal;fill:#18828a;fill-opacity:0.752941;stroke:none;stroke-width:2.23449;stroke-linecap:round;stroke-linejoin:round;stroke-dasharray:none;stroke-opacity:0.967033;paint-order:markers fill stroke"
         x="48.615765"
         y="156.08624"
         id="text205"
         transform="scale(0.77282489,1.2939542)"><tspan
           sodipodi:role="line"
           id="tspan205"
           style="font-style:normal;font-variant:normal;font-weight:normal;font-stretch:normal;font-size:28.4692px;font-family:'.Apple Color Emoji UI';-inkscape-font-specification:'.Apple Color Emoji UI, Normal';font-variant-ligatures:normal;font-variant-caps:normal;font-variant-numeric:normal;font-variant-east-asian:normal;fill:#18828a;fill-opacity:0.752941;stroke-width:2.23449"
           x="48.615765"
           y="156.08624">OPEN</tspan></text><text
         xml:space="preserve"
         style="font-style:normal;font-variant:normal;font-weight:normal;font-stretch:normal;font-size:27.3284px;font-family:'.Apple Color Emoji UI';-inkscape-font-specification:'.Apple Color Emoji UI, Normal';font-variant-ligatures:normal;font-variant-caps:normal;font-variant-numeric:normal;font-variant-east-asian:normal;fill:#06734e;fill-opacity:0.847059;stroke:none;stroke-width:2.14495;stroke-linecap:round;stroke-linejoin:round;stroke-dasharray:none;stroke-opacity:0.967033;paint-order:markers fill stroke"
         x="169.30368"
         y="144.08771"
         id="text206"
         transform="scale(0.71139734,1.4056842)"><tspan
           sodipodi:role="line"
           id="tspan206"
           style="font-style:normal;font-variant:normal;font-weight:normal;font-stretch:normal;font-size:27.3284px;font-family:'.Apple Color Emoji UI';-inkscape-font-specification:'.Apple Color Emoji UI, Normal';font-variant-ligatures:normal;font-variant-caps:normal;font-variant-numeric:normal;font-variant-east-asian:normal;fill:#06734e;fill-opacity:0.847059;stroke-width:2.14495"
           x="169.30368"
           y="144.08771">GROW</tspan><tspan
           sodipodi:role="line"
           style="font-style:normal;font-variant:normal;font-weight:normal;font-stretch:normal;font-size:27.3284px;font-family:'.Apple Color Emoji UI';-inkscape-font-specification:'.Apple Color Emoji UI, Normal';font-variant-ligatures:normal;font-variant-caps:normal;font-variant-numeric:normal;font-variant-east-asian:normal;fill:#06734e;fill-opacity:0.847059;stroke-width:2.14495"
           x="169.30368"
           y="178.2482"
           id="tspan207" /></text><text
         xml:space="preserve"
         style="font-style:normal;font-variant:normal;font-weight:bold;font-stretch:normal;font-size:32.2537px;font-family:'.Apple SD Gothic NeoI';-inkscape-font-specification:'.Apple SD Gothic NeoI, Bold';font-variant-ligatures:normal;font-variant-caps:normal;font-variant-numeric:normal;font-variant-east-asian:normal;fill:url(#radialGradient218);stroke:none;stroke-width:2.53153;stroke-linecap:round;stroke-linejoin:round;stroke-dasharray:none;stroke-opacity:0.967033;paint-order:markers fill stroke"
         x="91.784027"
         y="211.75447"
         id="text208"
         transform="scale(0.89137873,1.1218576)"
         inkscape:export-filename="ogb_new_logo.svg"
         inkscape:export-xdpi="231.51123"
         inkscape:export-ydpi="231.51123"><tspan
           sodipodi:role="line"
           id="tspan208"
           style="font-style:normal;font-variant:normal;font-weight:bold;font-stretch:normal;font-size:32.2537px;font-family:'.Apple SD Gothic NeoI';-inkscape-font-specification:'.Apple SD Gothic NeoI, Bold';font-variant-ligatures:normal;font-variant-caps:normal;font-variant-numeric:normal;font-variant-east-asian:normal;fill:url(#radialGradient218);fill-opacity:0.752941;stroke-width:2.53153"
           x="91.784027"
           y="211.75447">BOX</tspan><tspan
           sodipodi:role="line"
           style="font-style:normal;font-variant:normal;font-weight:bold;font-stretch:normal;font-size:32.2537px;font-family:'.Apple SD Gothic NeoI';-inkscape-font-specification:'.Apple SD Gothic NeoI, Bold';font-variant-ligatures:normal;font-variant-caps:normal;font-variant-numeric:normal;font-variant-east-asian:normal;fill:url(#radialGradient218);fill-opacity:0.752941;stroke-width:2.53153"
           x="91.784027"
           y="252.07159"
           id="tspan209" /></text></g></g></svg>
